<svg width="377" height="331" viewBox="0 0 377 331" fill="none" xmlns="http://www.w3.org/2000/svg">
<g clip-path="url(#clip0_1_238)">
<path d="M153 152L151.5 150L130 152V167L127.5 169L122.5 171.5L120 176.5L127.5 190.5L156.5 185.5L157.5 174L154 169H153V152Z" fill="white"/>
<path d="M126.886 169.161C126.886 169.161 104.328 167.559 100.747 167.559C97.1649 167.559 90.3062 170.305 86.4958 180.296C82.6855 190.287 75.0647 209.735 75.0647 209.735C75.0647 209.735 58.9086 176.559 58.2228 170C57.5369 163.441 56.0889 156.729 57.6131 153.526C59.1372 150.323 60.89 145.671 55.6317 147.501C50.3733 149.331 47.0202 155.967 46.3343 157.95C44.3529 157.95 32.7693 156.806 20.5761 142.238C18.2899 140.408 14.5557 140.103 14.5557 141.552C14.5557 143.001 27.2824 155.967 27.5872 158.026C23.853 157.873 16.9943 152.84 11.4312 146.738C9.8308 145.137 5.02971 146.128 7.31594 149.331C9.60217 152.535 13.3364 159.932 15.3178 162.068C17.2992 164.203 22.8623 165.958 24.3103 168.474C25.7582 171.068 35.8939 187.465 36.7322 191.965C37.5704 196.465 58.6038 256.487 59.8993 260.605C61.1949 264.724 66.6056 274.944 78.0368 274.333C89.4679 273.723 86.8769 266.63 86.8769 266.63L192.348 265.029L189.453 246.42C189.453 246.42 206.142 273.342 209.724 277.613C213.306 281.884 218.412 283.333 223.594 282.875C228.776 282.418 237.921 278.452 240.055 265.258C242.188 252.063 252.476 205.312 252.629 201.346C250.647 202.185 251.638 201.193 252.629 199.744C253.62 198.295 257.506 189.982 257.354 181.745C257.201 173.508 254.458 163.593 244.322 165.119C246.151 160.848 251.867 152.077 253.01 150.78C254.153 149.484 255.449 141.781 247.752 147.806C240.055 153.831 220.774 195.397 217.421 219.192C213.153 211.718 204.161 195.015 199.588 186.016C195.016 177.016 189.757 175.262 184.575 174.881C179.393 174.5 156.531 172.669 156.531 172.669C156.378 176.254 155.693 185.863 140.984 183.728C126.276 181.592 121.17 174.423 126.886 169.161Z" fill="white" stroke="#141335" stroke-width="0.5" stroke-miterlimit="10"/>
<path d="M130.239 174.728V150.704" stroke="#141335" stroke-width="0.5" stroke-miterlimit="10"/>
<path d="M153.178 176.711V151.848" stroke="#141335" stroke-width="0.5" stroke-miterlimit="10"/>
<path d="M127.496 152.001C129.558 152.001 131.23 150.464 131.23 148.569C131.23 146.673 129.558 145.137 127.496 145.137C125.433 145.137 123.761 146.673 123.761 148.569C123.761 150.464 125.433 152.001 127.496 152.001Z" fill="white" stroke="#141335" stroke-width="0.5" stroke-miterlimit="10"/>
<path d="M154.702 149.255C156.722 149.255 158.36 147.548 158.36 145.442C158.36 143.336 156.722 141.628 154.702 141.628C152.682 141.628 151.044 143.336 151.044 145.442C151.044 147.548 152.682 149.255 154.702 149.255Z" fill="white" stroke="#141335" stroke-width="0.5" stroke-miterlimit="10"/>
<path d="M141.67 159.551C148.489 159.551 154.016 154.019 154.016 147.196C154.016 140.372 148.489 134.841 141.67 134.841C134.852 134.841 129.325 140.372 129.325 147.196C129.325 154.019 134.852 159.551 141.67 159.551Z" fill="white" stroke="#141335" stroke-width="0.5" stroke-miterlimit="10"/>
<path d="M124.828 141.781C124.371 140.256 124.066 138.273 125.209 137.205C126.048 136.442 127.343 136.442 128.182 135.679C129.02 134.917 129.096 133.62 129.553 132.553C130.315 130.722 132.373 129.654 134.354 129.426C136.336 129.197 138.317 129.654 140.299 130.112C142.28 130.57 144.185 131.18 146.167 131.103C147.691 131.027 149.291 130.57 150.434 129.502C151.577 128.434 152.111 126.68 151.425 125.231C153.864 125.46 155.997 127.29 156.836 129.578C157.674 131.866 157.064 134.612 155.464 136.442C153.864 138.273 151.273 139.188 148.834 138.883C147.005 138.654 145.252 137.739 143.499 137.205C139.384 135.985 135.955 136.29 132.449 138.806C131.382 139.569 130.163 141.628 129.934 143.001C129.782 143.916 129.553 145.06 128.715 145.747C126.734 147.653 125.133 142.849 124.828 141.781Z" fill="#063468"/>
<path d="M238.226 317.882H377" stroke="#141335" stroke-width="0.5" stroke-miterlimit="10"/>
<path d="M342.402 317.882C342.402 317.882 347.431 314.984 348.803 310.865C350.175 306.747 357.491 284.096 357.491 284.096H303.917C303.917 284.096 298.201 311.552 290.352 317.882C298.963 317.882 342.402 317.882 342.402 317.882Z" fill="white" stroke="#141335" stroke-width="0.5" stroke-miterlimit="10"/>
<path d="M293.324 314.45H271.528C271.528 314.45 268.099 315.136 267.947 317.806C270.538 317.806 290.352 317.806 290.352 317.806C290.352 317.806 292.028 316.585 293.324 314.45Z" fill="#063468"/>
<path d="M326.322 305.756C327.627 305.756 328.684 304.151 328.684 302.171C328.684 300.191 327.627 298.586 326.322 298.586C325.017 298.586 323.959 300.191 323.959 302.171C323.959 304.151 325.017 305.756 326.322 305.756Z" fill="#063468"/>
<path d="M192.348 264.953L201.646 330.771H76.7412L86.4196 270.367L86.8769 266.554L192.348 264.953Z" fill="white" stroke="#141335" stroke-width="0.5" stroke-miterlimit="10"/>
<path d="M192.653 269.986L86.4197 270.367" stroke="#141335" stroke-width="0.5" stroke-miterlimit="10"/>
<path d="M106.386 270.367C106.386 270.367 105.395 279.52 100.061 279.367C94.7263 279.138 84.8955 279.367 84.8955 279.367" stroke="#141335" stroke-width="0.5" stroke-miterlimit="10"/>
<path d="M172.839 270.367C172.839 270.367 174.364 277.613 178.936 277.689C183.508 277.765 194.101 277.689 194.101 277.689" stroke="#141335" stroke-width="0.5" stroke-miterlimit="10"/>
<path d="M141.213 303.162V301.027L143.118 302.095L143.88 301.027" stroke="#141335" stroke-width="0.5" stroke-miterlimit="10"/>
<path d="M209.495 204.701C204.313 202.49 188.843 209.582 186.633 220.641" stroke="#141335" stroke-width="0.5" stroke-miterlimit="10"/>
<path d="M78.7227 200.354C78.7227 200.354 91.2207 200.125 95.4122 210.574" stroke="#141335" stroke-width="0.5" stroke-miterlimit="10"/>
<path d="M75.0647 209.735L83.2951 228.192" stroke="#141335" stroke-width="0.5" stroke-miterlimit="10"/>
<path d="M37.3418 189.906C37.3418 189.906 23.091 175.491 22.0241 173.432C20.9572 171.373 18.8996 163.365 20.4237 159.551C21.9479 155.738 25.301 147.959 25.4534 146.204C25.6058 144.527 29.34 142.772 29.4924 149.408C29.6449 155.967 29.4924 160.39 26.9776 168.398C30.788 160.543 30.1783 161 32.0073 158.712C33.8363 156.424 38.4087 152.306 39.4757 151.391C40.5426 150.475 43.2098 154.136 39.4757 157.797C35.7415 161.458 33.6077 168.78 37.3418 172.44" fill="white"/>
<path d="M37.3418 189.906C37.3418 189.906 23.091 175.491 22.0241 173.432C20.9572 171.373 18.8996 163.365 20.4237 159.551C21.9479 155.738 25.301 147.959 25.4534 146.204C25.6058 144.527 29.34 142.772 29.4924 149.408C29.6449 155.967 29.4924 160.39 26.9776 168.398C30.788 160.543 30.1783 161 32.0073 158.712C33.8363 156.424 38.4087 152.306 39.4757 151.391C40.5426 150.475 43.2098 154.136 39.4757 157.797C35.7415 161.458 33.6077 168.78 37.3418 172.44" stroke="#141335" stroke-width="0.5" stroke-miterlimit="10"/>
<path d="M261.621 166.797C264.593 167.635 264.365 177.779 259.869 180.83C255.372 183.88 257.201 166.644 261.621 166.797Z" fill="white" stroke="#141335" stroke-width="0.5" stroke-miterlimit="10"/>
<path d="M253.01 166.034C253.543 164.966 254.686 164.203 255.906 164.356C258.497 164.509 260.707 165.653 259.488 169.313C258.04 173.889 255.372 179.228 251.867 178.084C248.971 177.093 251.181 169.771 253.01 166.034Z" fill="white" stroke="#141335" stroke-width="0.5" stroke-miterlimit="10"/>
<path d="M244.703 165.958C246.685 163.365 249.885 159.932 252.705 162.449C255.525 164.966 252.248 178.694 246.608 177.245C240.969 175.796 247.142 165.042 247.142 165.042" fill="white"/>
<path d="M244.703 165.958C246.685 163.365 249.885 159.932 252.705 162.449C255.525 164.966 252.248 178.694 246.608 177.245C240.969 175.796 247.142 165.042 247.142 165.042" stroke="#141335" stroke-width="0.5" stroke-miterlimit="10"/>
<path d="M235.863 170.534C238.149 168.551 244.703 166.568 249.504 167.864C251.257 170.762 246.38 173.05 242.722 173.966C244.017 175.72 245.161 183.728 243.56 185.94C241.96 188.151 242.95 188.685 242.95 188.685" fill="white"/>
<path d="M235.863 170.534C238.149 168.551 244.703 166.568 249.504 167.864C251.257 170.762 246.38 173.05 242.722 173.966C244.017 175.72 245.161 183.728 243.56 185.94C241.96 188.151 242.95 188.685 242.95 188.685" stroke="#141335" stroke-width="0.5" stroke-miterlimit="10"/>
<path d="M152.644 152.916C150.815 155.509 147.462 160.39 139.841 159.475C132.221 158.56 130.468 152.535 130.468 152.535V166.949C130.544 166.949 150.587 164.127 152.644 152.916Z" fill="#063468"/>
<path d="M129.325 166.034C126.734 166.339 118.579 168.246 116.827 178.923C116.827 178.923 121.018 173.432 125.59 177.016C125.514 173.508 124.066 171.754 129.325 166.034Z" fill="#063468"/>
<path d="M153.178 168.474C156.15 169.847 162.17 173.127 163.542 183.652C160.646 181.059 160.113 179.609 154.092 181.287C155.159 177.855 157.369 172.669 153.178 168.474Z" fill="#063468"/>
<path d="M146.014 183.575L147.157 202.871H140.832L139.156 183.423L146.014 183.575Z" fill="#063468"/>
<path d="M214.373 213.701L211.553 240.166L217.268 218.811L214.373 213.701Z" fill="#063468"/>
<path d="M184.194 211.794L189.148 245.199L197.073 258.394L184.194 211.794Z" fill="#063468"/>
<path d="M96.784 204.701L80.3993 274.028C80.3993 274.028 86.7245 274.944 87.9439 265.181C89.1632 255.419 96.784 204.701 96.784 204.701Z" fill="#063468"/>
<path d="M104.633 270.367H86.3434L85.9624 277.689H98.6891C98.7653 277.689 105.167 275.859 104.633 270.367Z" fill="#063468"/>
<path d="M175.049 269.986H192.653L193.796 276.088H180.612C180.612 276.088 176.116 276.24 175.049 269.986Z" fill="#063468"/>
<path d="M140.756 304.078L135.345 330.771H145.328L141.899 304.078H140.756Z" fill="#063468"/>
<path d="M357.567 252.063C365.569 231.319 369.989 208.82 369.989 185.253C369.989 83.0551 287.227 0.228806 185.109 0.228806C131.306 0.228806 82.8379 23.2615 49.0016 60.0224" stroke="#141335" stroke-width="0.5" stroke-miterlimit="10"/>
<path d="M0.228638 185.253C0.228638 235.59 20.2713 281.197 52.812 314.526" stroke="#141335" stroke-width="0.5" stroke-miterlimit="10"/>
<path d="M56.6224 74.5131H31.0927C28.9589 74.5131 27.2823 76.191 27.2823 78.3265V131.027C27.2823 133.163 28.9589 134.841 31.0927 134.841H56.6224C58.7562 134.841 60.4327 133.163 60.4327 131.027V78.3265C60.4327 76.2673 58.7562 74.5131 56.6224 74.5131Z" fill="#28CFE4" stroke="#141335" stroke-width="0.5" stroke-miterlimit="10"/>
<path d="M56.6224 74.5131H31.0927C28.9589 74.5131 27.2823 76.191 27.2823 78.3265V81.4535H60.4327V78.3265C60.4327 76.2673 58.7562 74.5131 56.6224 74.5131Z" fill="#063468"/>
<path d="M56.6224 136.442H31.0927C28.9589 136.442 27.2823 134.764 27.2823 132.629V129.502H60.4327V132.629C60.4327 134.764 58.7562 136.442 56.6224 136.442Z" fill="#063468"/>
<path d="M270.004 85.5719H244.856C242.722 85.5719 241.045 87.2498 241.045 89.3853V142.391C241.045 144.526 242.722 146.204 244.856 146.204H270.004C272.138 146.204 273.815 144.526 273.815 142.391V89.3853C273.815 87.326 272.138 85.5719 270.004 85.5719Z" stroke="#141335" stroke-miterlimit="10"/>
<path d="M270.919 93.8087C274.833 93.8087 278.006 90.6332 278.006 86.7159C278.006 82.7986 274.833 79.623 270.919 79.623C267.005 79.623 263.831 82.7986 263.831 86.7159C263.831 90.6332 267.005 93.8087 270.919 93.8087Z" fill="#FF7278" stroke="#141335" stroke-miterlimit="10"/>
<path d="M266.956 86.7159L269.852 89.7666L275.186 83.6652" stroke="#141335" stroke-miterlimit="10"/>
<path d="M74.5313 104.715C76.8461 104.715 78.7227 102.837 78.7227 100.52C78.7227 98.2036 76.8461 96.3256 74.5313 96.3256C72.2164 96.3256 70.3398 98.2036 70.3398 100.52C70.3398 102.837 72.2164 104.715 74.5313 104.715Z" fill="white" stroke="#141335" stroke-width="0.5" stroke-miterlimit="10"/>
<path d="M216.583 105.325C219.192 105.325 221.307 103.208 221.307 100.597C221.307 97.985 219.192 95.868 216.583 95.868C213.973 95.868 211.858 97.985 211.858 100.597C211.858 103.208 213.973 105.325 216.583 105.325Z" fill="white" stroke="#141335" stroke-width="0.5" stroke-miterlimit="10"/>
<path d="M78.7227 100.52L211.858 100.597" stroke="#141335" stroke-width="0.5" stroke-miterlimit="10"/>
</g>
<defs>
<clipPath id="clip0_1_238">
<rect width="377" height="331" fill="white"/>
</clipPath>
</defs>
</svg>
